
<svg width="119px" height="31px" viewBox="0 0 119 31" version="1.1" xmlns="http://www.w3.org/2000/svg" xmlns:xlink="http://www.w3.org/1999/xlink">
    <defs>
        <linearGradient x1="50%" y1="0%" x2="50%" y2="100%" id="linearGradient-1">
            <stop stop-color="#5EC3F7" offset="0%"></stop>
            <stop stop-color="#5D6EE8" offset="100%"></stop>
        </linearGradient>
    </defs>
    <g id="Page-1" stroke="none" stroke-width="1" fill="none" fillRule="evenodd">
        <g id="Artboard" transform="translate(-451.000000, -47.000000)">
            <g id="Sitepins-white.svg" transform="translate(451.000000, 47.000000)">
                <path d="M67.3563202,10.3495409 C65.1361041,10.5223499 63.8681567,12.386394 63.8467917,14.608341 C63.8467917,18.3466666 63.7116254,22.5653357 63.7116254,25.1562423 C63.9296356,27.2098848 61.3357501,29.4150424 61.3357501,29.4150424 C61.3357501,29.4150424 59.2838379,31.4432959 58.3119484,30.9109459 C57.9068854,30.7590214 58.0150185,28.7815459 58.0150185,27.6656583 C57.9879852,23.4568172 57.9879852,19.2475666 58.0961183,15.0641145 C58.1772181,10.7537174 59.7429674,7.15339334 64.4406515,5.6046643 C69.1653689,4.05798277 73.2417239,5.5538863 75.9145291,9.23037739 C77.8674646,12.06207 77.534345,19.1697616 71.9999377,22.7700857 C70.1102252,23.9871197 66.1136619,25.9396158 66.0334342,25.8380598 C65.6283712,22.1361797 67.3850975,19.4232421 70.1638557,16.9130071 C72.9426139,14.402772 71.8377381,11.1574844 68.1930434,10.3712444 C67.9163543,10.329596 67.6350351,10.322299 67.3563202,10.3495409 Z" id="Path_4468" fill="url(#linearGradient-1)"></path>
                <path d="M7.59387664,22.9973895 C4.83450527,22.9973895 2.69579838,22.6789204 1.17775596,22.0419822 C0.768792889,21.8775526 0.519394655,21.4758131 0.563052749,21.0517966 C0.555925993,20.4770492 0.592204756,19.9025625 0.67160318,19.3328631 C0.888426774,17.9084135 1.28006786,17.1961887 1.84652643,17.1961887 C1.87064874,17.1961887 2.0995335,17.256951 2.53318068,17.3784756 C2.96682787,17.5000002 3.49100307,17.6187266 4.10570628,17.7346547 C4.65316314,17.8437276 5.21026195,17.9019595 5.76931441,17.9085468 C6.1971632,17.9351351 6.62632836,17.8820625 7.03324069,17.7522437 C7.24679322,17.6707669 7.38421531,17.4692801 7.37677577,17.2485563 C7.36673987,16.9193016 7.15238292,16.6278938 6.83277591,16.5090151 C6.40165324,16.3110486 5.93652078,16.190475 5.4602992,16.1532358 C4.85845066,16.0854638 4.26509502,15.9603935 3.68897244,15.7798675 C3.07465664,15.5936857 2.4788111,15.3552915 1.90849583,15.0675095 C1.29754764,14.7301228 0.816198796,14.2122269 0.536019117,13.5908256 C0.156988014,12.7809726 -0.0253437419,11.8988366 0.00283270913,11.0112261 C0.00283270913,8.87921557 0.710697971,7.34470097 2.1264285,6.40768233 C3.54215902,5.47066369 5.37670289,5.00148812 7.63006011,5.00015561 C9.2062707,4.99353535 10.7757442,5.19817967 12.2931537,5.60817837 C12.7072809,5.76939452 12.9636604,6.17129256 12.9253248,6.59916353 C12.9231969,7.45069112 12.8171095,8.29903686 12.6092393,9.12679529 C12.3985156,9.97800051 12.0340468,10.4036031 11.5158328,10.4036031 C11.2385648,10.4036031 10.6994171,10.3636279 9.89838981,10.2836775 C9.09736249,10.2037271 8.61214345,10.1637519 8.44273269,10.1637519 C7.93835426,10.1418066 7.43328438,10.1886431 6.94257405,10.3028656 C6.67543054,10.368834 6.49398024,10.6070081 6.50920413,10.8717127 C6.50920413,11.2075043 6.7683111,11.4275012 7.28652503,11.5317032 C7.80473897,11.6359052 8.42859202,11.7343775 9.15808419,11.8271199 C9.90507659,11.9238328 10.6383591,12.1011076 11.3440653,12.355592 C12.1397152,12.6713828 12.7997876,13.2381499 13.2156244,13.962595 C13.779111,14.9503993 14.0480891,16.068497 13.9929453,17.1937902 C13.9929453,19.1858876 13.3690923,20.6509786 12.1213862,21.5890632 C10.8248222,22.543514 9.22639501,23.0407205 7.59387664,22.9973895 Z" id="Path_47309" fill="#FFFFFF"></path>
                <path d="M37.3008475,23.7868618 L34.1334746,23.7868618 C33.451079,23.792606 32.7697712,23.7337361 32.0995763,23.6111183 C31.5436567,23.5148251 31.0160986,23.3052168 30.5529661,22.9966221 C30.1703659,22.7368067 29.8068093,22.4523976 29.4648305,22.1453771 C29.1182325,21.7954201 28.8655668,21.3707152 28.7283898,20.9074965 C28.5379944,20.3575069 28.3846045,19.8834708 28.2682203,19.4853882 C28.1270652,18.9124542 28.0499402,18.3268789 28.0381356,17.7384574 C28.0014124,16.9719194 27.9768362,16.363214 27.9644068,15.912341 C27.9519774,15.461468 27.945904,14.7796371 27.9461864,13.8668483 L27.9461864,11.0226316 L25.7182203,11.0226316 C25.2394068,11.0226316 25,10.2090941 25,8.58201901 C25,6.86148341 25.2394068,5.99529015 25.7182203,5.98343925 L27.9461864,5.98343925 L27.9461864,2.13849467 C27.9345171,1.89939047 28.0236183,1.66576603 28.1936441,1.48965775 C28.4149734,1.2999099 28.6907831,1.17763932 28.9855932,1.13857476 C29.3192079,1.072341 29.6578713,1.03180941 29.9983051,1.01737235 C30.3112994,1.00579078 30.7470339,1 31.3055085,1 C31.8639831,1 32.3059322,1.00579078 32.6313559,1.01737235 C32.9780208,1.03102639 33.3229449,1.07156102 33.6627119,1.13857476 C33.9593233,1.17779036 34.2359502,1.30352786 34.454661,1.49854593 C34.6223135,1.67287124 34.7116112,1.9029136 34.7033898,2.13930269 L34.7033898,5.98424727 L37.0788136,5.98424727 C37.5576271,5.98424727 37.7970339,6.85044052 37.7970339,8.58282702 C37.7970339,10.2099021 37.5576271,11.0234396 37.0788136,11.0234396 L34.7033898,11.0234396 L34.7033898,14.7277894 C34.7033898,16.1205398 34.8415254,17.0803283 35.1177966,17.6071548 C35.4008105,18.1390674 35.9957434,18.4523168 36.6186441,18.3973945 L37.3,18.3973945 C37.8033898,18.3973945 38.0550847,19.3162435 38.0550847,21.1539414 C38.0556497,22.9092217 37.8042373,23.7868618 37.3008475,23.7868618 Z M54.4165254,23.1372169 C52.8492565,23.7387082 51.1704497,24.0313015 49.4813559,23.99735 C48.244178,24.0167441 47.0086993,23.9019417 45.7987288,23.6551552 C44.7563125,23.4172173 43.771338,22.9911242 42.8970339,22.3999022 C41.9164588,21.7037101 41.1919378,20.7296594 40.8271186,19.6170948 C40.317214,18.0945298 40.0805553,16.5008139 40.1271186,14.9031289 C40.1271186,8.84004548 42.7665254,5.80850377 48.045339,5.80850377 C53.2504237,5.80850377 55.9019774,8.72301781 56,14.5520459 L56,15.7984107 C56,16.7114689 55.6870056,17.167998 55.0610169,17.167998 L46.3512712,17.167998 L46.3512712,17.3085928 C46.3512712,18.2916791 47.4812147,18.7832222 49.7411017,18.7832222 C50.4919005,18.7772606 51.2394813,18.6888739 51.9690678,18.5198089 C52.4520188,18.3946948 52.9446912,18.3066096 53.4423729,18.2563957 C54.0437853,18.2563957 54.509887,18.9996358 54.840678,20.4861161 C54.9497988,21.0067536 55.0114694,21.5354169 55.025,22.0661916 C55.0872788,22.5112436 54.8415181,22.9438269 54.4165254,23.1372169 Z M46.3512712,12.7085572 L49.5919492,12.7085572 C49.5794774,12.1665245 49.3965793,11.6405521 49.0669492,11.1987791 C48.8146283,10.8600385 48.4069349,10.6575619 47.9711864,10.6545803 C47.5354379,10.6575619 47.1277446,10.8600385 46.8754237,11.1987791 C46.5460948,11.6406452 46.3634946,12.16661 46.3512712,12.7085572 Z" id="Path_47310" fill="#FFFFFF" fillRule="nonzero"></path>
                <path d="M92.7672729,6.3206762 L92.7672729,7.1025293 L93.0252137,7.1025293 C93.4771577,6.39525085 94.1500108,5.83682087 94.9517086,5.5036477 C95.6833628,5.18335432 96.4783791,5.01175171 97.2850541,5 C100.603213,5.00106592 102.268373,6.87761995 102.280535,10.6296621 L102.280535,21.6427585 C102.299232,22.1202622 101.926578,22.5316586 101.423136,22.5892964 C100.582737,22.7458313 99.7263264,22.8128721 98.8700321,22.7891566 C98.3168171,22.7891566 97.8835219,22.7834273 97.5701465,22.7719686 C97.2292983,22.7576848 96.8902226,22.7175834 96.5562018,22.6520525 C96.2592293,22.6132531 95.9822657,22.48885 95.7632886,22.2959016 C95.5933182,22.1176044 95.5039617,21.8838197 95.514257,21.6443574 L95.514257,13.5480207 C95.5652313,12.8092809 95.4751372,12.0679163 95.2482556,11.3591518 C95.0700728,10.9884778 94.6676061,10.8031407 94.0408554,10.8031407 C93.1804872,10.8031407 92.7562426,11.4921255 92.7681214,12.8700949 L92.7681214,21.6427585 C92.786797,22.1203984 92.4139099,22.5318491 91.9102988,22.5892964 C91.0697605,22.7458611 90.213206,22.8129022 89.3567703,22.7891566 C88.8035553,22.7891566 88.3702601,22.7834273 88.0568847,22.7719686 C87.7160365,22.7576848 87.3769608,22.7175834 87.04294,22.6520525 C86.7459675,22.6132531 86.4690039,22.48885 86.2500268,22.2959016 C86.0800564,22.1176044 85.9906999,21.8838197 86.0009952,21.6443574 L86.0009952,6.3206762 C85.9894255,6.08366764 86.079118,5.85217135 86.2500268,5.6779258 C86.4721258,5.48933481 86.7475947,5.36560312 87.04294,5.32177492 C87.3761745,5.25021348 87.7154822,5.20660676 88.0568847,5.19146607 C88.3702601,5.18000742 88.8035553,5.17427809 89.3567703,5.17427809 C89.9099853,5.17427809 90.3493613,5.18000742 90.6748984,5.19146607 C91.025447,5.2061367 91.3739552,5.24973996 91.716419,5.32177492 C92.0147458,5.36455947 92.2933765,5.48832075 92.5182413,5.6779258 C92.6891501,5.85217135 92.7788426,6.08366764 92.7672729,6.3206762 Z M112.466224,22.9974109 C109.651503,22.9974109 107.469895,22.678967 105.921402,22.0420792 C105.504403,21.8775303 105.250194,21.4758542 105.294793,21.0519718 C105.287523,20.4772698 105.32453,19.9028285 105.405521,19.3331741 C105.626694,17.908837 106.026191,17.1966685 106.604012,17.1966685 C106.628618,17.1966685 106.862094,17.257426 107.30444,17.378941 C107.746786,17.500456 108.281475,17.619173 108.908509,17.7350919 C109.466947,17.8441563 110.035221,17.9023836 110.605487,17.9089703 C111.042341,17.9357121 111.480563,17.8826418 111.896039,17.7526796 C112.113876,17.6712092 112.254054,17.4697383 112.246466,17.2490319 C112.236286,16.9210334 112.019217,16.6304556 111.694948,16.5107483 C111.255205,16.3126593 110.780741,16.1919594 110.29494,16.1545974 C109.681019,16.0868307 109.075761,15.9617704 108.488082,15.7812586 C107.861444,15.5950916 107.253646,15.3567161 106.671891,15.0689568 C106.048688,14.7315969 105.557684,14.2137419 105.271884,13.5923897 C104.88525,12.7826006 104.69926,11.9005343 104.728002,11.012994 C104.728002,8.88115183 105.450066,7.34675846 106.894195,6.40981385 C108.338324,5.47286923 110.20797,5.00346424 112.503134,5.00159888 C114.110961,4.99497914 115.711917,5.1996073 117.259764,5.60957361 C117.682366,5.7706435 117.944081,6.17254178 117.905041,6.60048048 C117.90287,7.4519408 117.794655,8.30021952 117.582615,9.12791256 C117.367664,9.97905052 116.995884,10.4046195 116.467275,10.4046195 C116.184446,10.4046195 115.634483,10.3646475 114.817388,10.2847034 C114.000293,10.2047593 113.505341,10.1647873 113.332532,10.1647873 C112.818036,10.1428437 112.302835,10.1896764 111.802281,10.30389 C111.527796,10.3700006 111.342,10.6106811 111.359794,10.877089 C111.359794,11.2128542 111.624099,11.4328336 112.152708,11.5370274 C112.681316,11.6412212 113.317683,11.7396856 114.061808,11.8324208 C114.823314,11.9277636 115.571013,12.1035475 116.29079,12.3564542 C117.1024,12.67222 117.775713,13.2389424 118.199891,13.9633302 C118.77468,14.9510565 119.049054,16.0690659 118.992804,17.1942702 C118.992804,19.1862102 118.356437,20.6511854 117.083703,21.589196 C115.761359,22.5433966 114.131201,23.040554 112.466224,22.9974109 Z" id="Path_47311" fill="#FFFFFF" fillRule="nonzero"></path>
                <g id="Group_658" transform="translate(15.000000, 0.000000)" fill="#FFFFFF">
                    <path d="M0.205882353,17.4181379 C0.205882353,17.4181379 0.195176471,7.18036207 0.205882353,7.17044828 C0.205882353,6.64898276 0.336411765,5.94827586 1.55770588,5.94827586 L4.949,5.94827586 C4.949,5.94827586 6.30082353,5.88403448 6.30082353,7.17044828 L6.30082353,21.811931 C6.30082353,21.811931 6.41117647,22.854069 5.14788235,22.854069 L1.34029412,22.854069 C1.04061324,22.8753898 0.745365613,22.7748115 0.526258672,22.5767618 C0.30715173,22.3787121 0.184231883,22.1013108 0.187352941,21.811931 C0.188176471,20.7293448 0.205882353,17.4181379 0.205882353,17.4181379 Z" id="Path_4466"></path>
                    <path d="M3.22494118,5.47043103 C3.22494118,5.47043103 6.77723529,5.83367241 6.62076471,2.82860345 C6.46429412,-0.176465517 4.70564706,-0.0198275862 3.22494118,0.0130862069 C1.74423529,0.046 0.133411765,0.369982759 0.189411765,2.82860345 C0.245411765,5.28722414 2.31164706,5.43910345 3.22494118,5.47043103 Z" id="Path_4467"></path>
                </g>
                <g id="Group_659" transform="translate(76.000000, 0.000000)" fill="#FFFFFF">
                    <path d="M0.873522847,17.7253896 C0.873522847,17.7253896 0.862413275,7.30702187 0.873522847,7.2969332 C0.873522847,6.76626916 1.00897417,6.05320197 2.27631995,6.05320197 L5.79549051,6.05320197 C5.79549051,6.05320197 7.19828762,5.98782739 7.19828762,7.2969332 L7.19828762,22.1966881 C7.19828762,22.1966881 7.31280167,23.2572091 6.00187218,23.2572091 L2.05071018,23.2572091 C1.73972916,23.2789059 1.43334855,23.1765535 1.20597968,22.9750102 C0.978610816,22.773467 0.851055997,22.4911724 0.854294741,22.1966881 C0.855149324,21.0950053 0.873522847,17.7253896 0.873522847,17.7253896 Z" id="Path_4469"></path>
                    <path d="M4.00642214,5.56692808 C4.00642214,5.56692808 7.69266357,5.93657695 7.5302929,2.87849931 C7.36792224,-0.179578325 5.5429614,-0.0201773399 4.00642214,0.0133170443 C2.46988288,0.0468114286 0.79831959,0.376509163 0.856431197,2.87849931 C0.914542805,5.38048946 3.05869019,5.53504788 4.00642214,5.56692808 Z" id="Path_4470"></path>
                </g>
            </g>
        </g>
    </g>
</svg>