<svg width="2500" height="2357" viewBox="0 0 2500 2357" fill="none" xmlns="http://www.w3.org/2000/svg">
<g id="32">
<path id="Oval (Stroke)" fillRule="evenodd" clip-rule="evenodd" d="M564.9 1134.45C564.9 1129.78 561.121 1126 556.459 1126C551.797 1126 548.017 1129.78 548.017 1134.45C548.017 1139.11 551.797 1142.89 556.459 1142.89C561.121 1142.89 564.9 1139.11 564.9 1134.45ZM556.459 1133.24C557.124 1133.24 557.663 1133.78 557.663 1134.45C557.663 1135.11 557.124 1135.65 556.459 1135.65C555.794 1135.65 555.255 1135.11 555.255 1134.45C555.255 1133.78 555.794 1133.24 556.459 1133.24Z" fill="black"/>
<path id="Oval (Stroke)_2" fillRule="evenodd" clip-rule="evenodd" d="M1575.92 1134.45C1575.92 1129.78 1572.14 1126 1567.47 1126C1562.81 1126 1559.03 1129.78 1559.03 1134.45C1559.03 1139.11 1562.81 1142.89 1567.47 1142.89C1572.14 1142.89 1575.92 1139.11 1575.92 1134.45ZM1567.47 1133.24C1568.14 1133.24 1568.68 1133.78 1568.68 1134.45C1568.68 1135.11 1568.14 1135.65 1567.47 1135.65C1566.81 1135.65 1566.27 1135.11 1566.27 1134.45C1566.27 1133.78 1566.81 1133.24 1567.47 1133.24Z" fill="black"/>
<path id="Oval (Stroke)_3" fillRule="evenodd" clip-rule="evenodd" d="M1814.77 1889.76C1814.77 1885.09 1810.99 1881.32 1806.33 1881.32C1801.67 1881.32 1797.89 1885.09 1797.89 1889.76C1797.89 1894.42 1801.67 1898.2 1806.33 1898.2C1810.99 1898.2 1814.77 1894.42 1814.77 1889.76ZM1806.33 1888.55C1806.99 1888.55 1807.53 1889.09 1807.53 1889.76C1807.53 1890.42 1806.99 1890.96 1806.33 1890.96C1805.66 1890.96 1805.12 1890.42 1805.12 1889.76C1805.12 1889.09 1805.66 1888.55 1806.33 1888.55Z" fill="black"/>
<path id="Oval (Stroke)_4" fillRule="evenodd" clip-rule="evenodd" d="M2174.71 154.572C2174.71 149.91 2170.93 146.13 2166.27 146.13C2161.61 146.13 2157.83 149.91 2157.83 154.572C2157.83 159.234 2161.61 163.013 2166.27 163.013C2170.93 163.013 2174.71 159.234 2174.71 154.572ZM2166.27 153.368C2166.94 153.368 2167.47 153.907 2167.47 154.572C2167.47 155.237 2166.94 155.776 2166.27 155.776C2165.61 155.776 2165.07 155.237 2165.07 154.572C2165.07 153.907 2165.61 153.368 2166.27 153.368Z" fill="black"/>
<path id="Oval (Stroke)_5" fillRule="evenodd" clip-rule="evenodd" d="M850.241 395.116C850.241 390.454 846.462 386.674 841.8 386.674C837.138 386.674 833.358 390.454 833.358 395.116C833.358 399.778 837.138 403.557 841.8 403.557C846.462 403.557 850.241 399.778 850.241 395.116ZM841.8 393.912C842.465 393.912 843.004 394.451 843.004 395.116C843.004 395.781 842.465 396.32 841.8 396.32C841.135 396.32 840.596 395.781 840.596 395.116C840.596 394.451 841.135 393.912 841.8 393.912Z" fill="black"/>
<path id="Oval (Stroke)_6" fillRule="evenodd" clip-rule="evenodd" d="M1002.94 1872.88C1002.94 1868.22 999.159 1864.44 994.497 1864.44C989.835 1864.44 986.056 1868.22 986.056 1872.88C986.056 1877.54 989.835 1881.32 994.497 1881.32C999.159 1881.32 1002.94 1877.54 1002.94 1872.88ZM994.497 1871.67C995.162 1871.67 995.702 1872.21 995.702 1872.88C995.702 1873.54 995.162 1874.08 994.497 1874.08C993.832 1874.08 993.293 1873.54 993.293 1872.88C993.293 1872.21 993.832 1871.67 994.497 1871.67Z" fill="black"/>
<path id="Path (Stroke)" fillRule="evenodd" clip-rule="evenodd" d="M298.091 539.201C296.916 537.585 294.653 537.227 293.037 538.403L266.476 557.72C264.859 558.896 264.502 561.159 265.678 562.775C266.853 564.391 269.116 564.749 270.732 563.573L297.293 544.256C298.91 543.081 299.267 540.817 298.091 539.201Z" fill="black"/>
<path id="Path (Stroke)_2" fillRule="evenodd" clip-rule="evenodd" d="M1197.76 1493.77C1196.59 1492.15 1194.32 1491.79 1192.71 1492.97L1166.15 1512.28C1164.53 1513.46 1164.17 1515.72 1165.35 1517.34C1166.52 1518.95 1168.79 1519.31 1170.4 1518.14L1196.96 1498.82C1198.58 1497.65 1198.94 1495.38 1197.76 1493.77Z" fill="black"/>
<path id="Path (Stroke)_3" fillRule="evenodd" clip-rule="evenodd" d="M1766.11 1644.43C1764.2 1643.85 1762.18 1644.94 1761.6 1646.85L1752.13 1678.3C1751.55 1680.21 1752.64 1682.23 1754.55 1682.81C1756.46 1683.38 1758.48 1682.3 1759.06 1680.38L1768.53 1648.94C1769.11 1647.02 1768.03 1645.01 1766.11 1644.43Z" fill="black"/>
<path id="Path (Stroke)_4" fillRule="evenodd" clip-rule="evenodd" d="M1397.38 360.208C1396.21 358.592 1393.95 358.234 1392.33 359.41L1365.77 378.728C1364.15 379.903 1363.8 382.167 1364.97 383.783C1366.15 385.399 1368.41 385.756 1370.03 384.581L1396.59 365.263C1398.2 364.087 1398.56 361.824 1397.38 360.208Z" fill="black"/>
<path id="Path (Stroke)_5" fillRule="evenodd" clip-rule="evenodd" d="M1232.43 7.57706C1231.45 9.31912 1232.07 11.5253 1233.81 12.5048L1262.43 28.5979C1264.17 29.5773 1266.38 28.9591 1267.36 27.217C1268.34 25.4749 1267.72 23.2687 1265.98 22.2893L1237.35 6.19621C1235.61 5.21676 1233.41 5.83499 1232.43 7.57706Z" fill="black"/>
<path id="Path (Stroke)_6" fillRule="evenodd" clip-rule="evenodd" d="M1694.09 1585.65C1692.92 1584.04 1690.66 1583.68 1689.04 1584.85L1662.48 1604.18C1660.86 1605.35 1660.51 1607.62 1661.68 1609.23C1662.86 1610.85 1665.12 1611.21 1666.74 1610.03L1693.3 1590.71C1694.91 1589.53 1695.27 1587.27 1694.09 1585.65Z" fill="black"/>
<path id="Path (Stroke)_7" fillRule="evenodd" clip-rule="evenodd" d="M1694.1 1484.1C1692.92 1482.49 1690.66 1482.13 1689.04 1483.31L1662.48 1502.62C1660.86 1503.8 1660.51 1506.06 1661.68 1507.68C1662.86 1509.29 1665.12 1509.65 1666.74 1508.47L1693.3 1489.16C1694.91 1487.98 1695.27 1485.72 1694.1 1484.1Z" fill="black"/>
<path id="Path (Stroke)_8" fillRule="evenodd" clip-rule="evenodd" d="M1759.4 1525.31C1757.41 1525.09 1755.62 1526.52 1755.4 1528.51L1751.79 1561.15C1751.57 1563.13 1753 1564.92 1754.99 1565.14C1756.98 1565.36 1758.76 1563.93 1758.98 1561.94L1762.6 1529.3C1762.82 1527.32 1761.38 1525.53 1759.4 1525.31Z" fill="black"/>
<path id="Path (Stroke)_9" fillRule="evenodd" clip-rule="evenodd" d="M2376.06 1403.86C2374.92 1405.5 2375.32 1407.75 2376.96 1408.89L2403.91 1427.67C2405.55 1428.81 2407.81 1428.4 2408.95 1426.76C2410.09 1425.12 2409.69 1422.87 2408.05 1421.73L2381.1 1402.96C2379.46 1401.81 2377.2 1402.22 2376.06 1403.86Z" fill="black"/>
<path id="Path (Stroke)_10" fillRule="evenodd" clip-rule="evenodd" d="M1160.33 2051.56C1159.19 2053.2 1159.59 2055.45 1161.23 2056.59L1188.18 2075.37C1189.82 2076.51 1192.08 2076.11 1193.22 2074.47C1194.36 2072.83 1193.96 2070.57 1192.32 2069.43L1165.37 2050.66C1163.73 2049.51 1161.47 2049.92 1160.33 2051.56Z" fill="black"/>
<path id="Path (Stroke)_11" fillRule="evenodd" clip-rule="evenodd" d="M150.968 1636.46C149.826 1638.1 150.229 1640.35 151.869 1641.49L178.819 1660.26C180.459 1661.41 182.714 1661 183.857 1659.36C184.999 1657.72 184.595 1655.47 182.956 1654.33L156.006 1635.55C154.366 1634.41 152.11 1634.82 150.968 1636.46Z" fill="black"/>
<path id="Path (Stroke)_12" fillRule="evenodd" clip-rule="evenodd" d="M2295.52 571.734C2293.9 570.575 2291.64 570.956 2290.48 572.584L2271.43 599.342C2270.28 600.97 2270.66 603.23 2272.28 604.389C2273.91 605.547 2276.17 605.167 2277.33 603.539L2296.37 576.78C2297.53 575.152 2297.15 572.893 2295.52 571.734Z" fill="black"/>
<path id="Path (Stroke)_13" fillRule="evenodd" clip-rule="evenodd" d="M105.29 251.852C104.56 253.713 105.475 255.813 107.335 256.544L137.904 268.553C139.764 269.284 141.864 268.368 142.595 266.508C143.326 264.648 142.41 262.548 140.55 261.817L109.982 249.808C108.122 249.077 106.021 249.992 105.29 251.852Z" fill="black"/>
<path id="Path (Stroke)_14" fillRule="evenodd" clip-rule="evenodd" d="M1573.26 33.9001L1566.14 33.8913L1544.49 150.874L1452.93 112.838L1449.31 119.026L1533.55 185.159L1459.38 221.637L1461.64 228.442L1548.49 212.248L1530.09 321.164L1536.98 323.19L1582.22 217.427L1662.05 303.836L1667.9 299.676L1614.86 200.298L1693.51 173.886L1692.58 166.844L1618.81 162.225L1640.29 116.097L1634.76 111.733L1593.44 144.464L1573.26 33.9001ZM1569.67 54.57L1588.48 157.622L1627.28 126.893L1607.77 168.785L1673.67 172.912L1604.44 196.16L1648.25 278.236L1579.96 204.313L1542.29 292.378L1557.35 203.233L1486.24 216.493L1547.08 186.574L1474.59 129.673L1549.98 160.99L1569.67 54.57Z" fill="#34B051"/>
<path id="Path (Stroke)_15" fillRule="evenodd" clip-rule="evenodd" d="M140.652 1768.91L133.534 1768.9L115.522 1866.22L39.4652 1834.63L35.8426 1840.82L105.706 1895.66L44.378 1925.82L46.638 1932.62L118.594 1919.21L103.318 2009.65L110.213 2011.68L147.768 1923.88L214.045 1995.62L219.895 1991.46L175.78 1908.8L241.032 1886.88L240.106 1879.84L179.134 1876.03L196.778 1838.15L191.252 1833.79L157.383 1860.61L140.652 1768.91ZM137.067 1789.58L152.427 1873.76L183.765 1848.95L168.093 1882.59L221.197 1885.91L165.368 1904.66L200.252 1970.03L145.506 1910.76L115.518 1980.87L127.456 1910.19L71.244 1920.67L119.229 1897.08L61.1255 1851.47L121.01 1876.34L137.067 1789.58Z" fill="black"/>
<path id="Path" d="M2290.5 874.745L2270.76 981.45L2186.63 946.503L2264.67 1007.77L2194.93 1042.06L2275.75 1026.99L2258.82 1127.23L2300.51 1029.74L2374.02 1109.31L2325.63 1018.63L2398.33 994.215L2328.82 989.864L2349.67 945.092L2309.19 977.153L2290.5 874.745Z" fill="black"/>
<path id="Path (Stroke)_16" fillRule="evenodd" clip-rule="evenodd" d="M271.984 0.582755C270.307 -0.504472 268.066 -0.0264335 266.979 1.65048L249.112 29.2083C248.025 30.8853 248.503 33.126 250.18 34.2133C251.856 35.3005 254.097 34.8225 255.184 33.1455L273.052 5.58768C274.139 3.91076 273.661 1.66998 271.984 0.582755Z" fill="black"/>
<path id="Path (Stroke)_17" fillRule="evenodd" clip-rule="evenodd" d="M2408.18 2127.84C2406.51 2126.76 2404.27 2127.23 2403.18 2128.91L2385.31 2156.47C2384.23 2158.14 2384.7 2160.38 2386.38 2161.47C2388.06 2162.56 2390.3 2162.08 2391.39 2160.4L2409.25 2132.85C2410.34 2131.17 2409.86 2128.93 2408.18 2127.84Z" fill="black"/>
<path id="Path (Stroke)_18" fillRule="evenodd" clip-rule="evenodd" d="M2498.61 2347.83C2498.61 2345.84 2496.99 2344.22 2494.99 2344.22H3.619C1.62029 2344.22 0.000190735 2345.84 0.000190735 2347.83C0.000190735 2349.83 1.62029 2351.45 3.619 2351.45H2494.99C2496.99 2351.45 2498.61 2349.83 2498.61 2347.83Z" fill="black"/>
<path id="Path (Stroke)_19" fillRule="evenodd" clip-rule="evenodd" d="M1805.47 415.738L1199.96 644.34L1202.52 651.111L1802.67 424.531C1802.82 424.745 1802.97 424.974 1803.13 425.216C1804.46 427.234 1806.43 430.223 1808.92 434.099C1813.91 441.851 1821.04 453.15 1829.57 467.317C1846.63 495.653 1869.29 535.444 1891.67 581.263C1936.53 673.07 1979.98 788.44 1975.76 884.281C1971.78 974.662 1923.97 1080.64 1876.8 1164.36C1853.27 1206.15 1829.97 1242.25 1812.57 1267.9C1803.86 1280.73 1796.64 1290.94 1791.59 1297.94C1789.06 1301.44 1787.08 1304.13 1785.73 1305.95C1785.06 1306.86 1784.54 1307.55 1784.2 1308.02C1784.03 1308.25 1783.9 1308.42 1783.81 1308.53L1783.69 1308.7L1783.68 1308.7C1783.68 1308.7 1783.68 1308.7 1786.56 1310.89C1785.84 1314.44 1785.84 1314.44 1785.85 1314.44L1785.86 1314.44L1786.05 1314.48C1786.19 1314.51 1786.41 1314.55 1786.69 1314.61C1787.25 1314.73 1788.1 1314.91 1789.2 1315.14C1791.42 1315.62 1794.68 1316.33 1798.89 1317.29C1807.31 1319.21 1819.48 1322.09 1834.49 1325.97C1864.51 1333.72 1905.85 1345.42 1951.13 1361.22C2041.85 1392.89 2147.77 1440.82 2210.49 1506.02C2276.99 1575.16 2320.63 1690.46 2347.64 1789.01C2361.12 1838.19 2370.41 1883.02 2376.33 1915.56C2379.29 1931.83 2381.41 1945.02 2382.79 1954.14C2383.48 1958.7 2383.98 1962.24 2384.31 1964.64C2384.35 1964.92 2384.39 1965.19 2384.42 1965.45L1460.79 2314.16C1460.64 2313.94 1460.49 2313.72 1460.33 2313.47C1459 2311.46 1457.03 2308.47 1454.54 2304.59C1449.55 2296.84 1442.42 2285.54 1433.89 2271.37C1416.83 2243.04 1394.17 2203.24 1371.79 2157.42C1326.93 2065.62 1283.48 1950.25 1287.7 1854.41C1291.67 1764.02 1339.49 1658.05 1386.65 1574.33C1410.19 1532.54 1433.48 1496.44 1450.89 1470.79C1459.59 1457.96 1466.82 1447.75 1471.87 1440.75C1474.4 1437.25 1476.38 1434.56 1477.72 1432.74C1478.4 1431.83 1478.91 1431.14 1479.26 1430.67C1479.43 1430.44 1479.56 1430.27 1479.65 1430.15L1479.74 1430.03L1479.77 1429.99L1479.77 1429.99C1479.77 1429.99 1479.78 1429.99 1476.89 1427.8C1477.61 1424.25 1477.61 1424.25 1477.61 1424.25L1477.4 1424.21C1477.26 1424.18 1477.05 1424.14 1476.77 1424.08C1476.2 1423.96 1475.36 1423.78 1474.25 1423.55C1472.04 1423.07 1468.77 1422.35 1464.56 1421.4C1456.15 1419.48 1443.97 1416.6 1428.97 1412.72C1398.95 1404.97 1357.61 1393.27 1312.33 1377.47C1221.6 1345.8 1115.68 1297.87 1052.97 1232.66C1006.94 1184.81 971.821 1114.78 945.582 1043.37C919.367 972.021 902.136 899.62 891.731 847.295L884.632 848.706C895.079 901.24 912.398 974.038 938.789 1045.87C965.156 1117.63 1000.7 1188.76 1047.75 1237.68C1111.73 1304.2 1219.08 1352.58 1309.95 1384.3C1355.46 1400.19 1397 1411.94 1427.16 1419.73C1442.24 1423.62 1454.48 1426.52 1462.96 1428.45C1466.02 1429.15 1468.59 1429.72 1470.63 1430.17C1469.39 1431.84 1467.84 1433.97 1466 1436.52C1460.91 1443.57 1453.65 1453.83 1444.9 1466.72C1427.41 1492.5 1404.01 1528.77 1380.35 1570.77C1333.11 1654.63 1284.52 1761.88 1280.47 1854.09C1276.17 1951.88 1320.36 2068.66 1365.28 2160.6C1387.79 2206.66 1410.55 2246.64 1427.69 2275.1C1436.26 2289.34 1443.43 2300.7 1448.45 2308.51C1450.97 2312.41 1452.95 2315.43 1454.3 2317.47C1454.97 2318.49 1455.49 2319.27 1455.84 2319.79C1456.02 2320.05 1456.15 2320.25 1456.24 2320.39L1456.35 2320.54L1456.37 2320.58L1456.38 2320.59C1456.38 2320.59 1456.38 2320.59 1459.38 2318.56L1456.38 2320.59L1457.99 2322.95L2392.34 1970.2L2391.98 1967.37L2388.39 1967.82C2391.98 1967.37 2391.98 1967.37 2391.98 1967.36L2391.97 1967.3L2391.95 1967.12C2391.93 1966.96 2391.9 1966.72 2391.85 1966.41C2391.77 1965.79 2391.65 1964.86 2391.48 1963.65C2391.15 1961.22 2390.64 1957.65 2389.95 1953.06C2388.56 1943.88 2386.43 1930.62 2383.45 1914.27C2377.5 1881.58 2368.16 1836.53 2354.62 1787.09C2327.57 1688.41 2283.56 1571.55 2215.7 1501C2151.72 1434.48 2044.38 1386.1 1953.51 1354.39C1908 1338.5 1866.46 1326.75 1836.3 1318.96C1821.22 1315.07 1808.97 1312.17 1800.5 1310.24C1797.44 1309.54 1794.87 1308.97 1792.83 1308.52C1794.06 1306.85 1795.62 1304.72 1797.45 1302.17C1802.54 1295.12 1809.81 1284.85 1818.56 1271.97C1836.05 1246.19 1859.45 1209.91 1883.11 1167.91C1930.34 1084.06 1978.93 976.807 1982.99 884.6C1987.29 786.811 1943.1 670.025 1898.18 578.086C1875.67 532.031 1852.91 492.051 1835.77 463.584C1827.2 449.348 1820.03 437.988 1815.01 430.181C1812.49 426.277 1810.52 423.262 1809.16 421.22C1808.49 420.199 1807.97 419.421 1807.62 418.897C1807.44 418.636 1807.31 418.437 1807.22 418.303L1807.11 418.152L1807.09 418.113L1807.08 418.102C1807.08 418.1 1807.08 418.098 1804.08 420.131L1807.08 418.098L1805.47 415.738ZM1476.89 1427.8L1477.61 1424.25L1483.25 1425.4L1479.78 1429.99L1476.89 1427.8ZM1786.56 1310.89L1785.84 1314.44L1780.21 1313.29L1783.68 1308.7L1786.56 1310.89Z" fill="black"/>
<path id="Path_2" d="M994.498 1151.68L1937.83 1043.03C1945.35 1066.61 1838.68 1232.97 1784.4 1313.21L1661.79 1463.48C1661.79 1463.48 1583.61 1454.97 1480.87 1428.28C1139.32 1368.25 1013.96 1218.95 994.498 1151.68Z" fill="black"/>
<path id="Rectangle" d="M2427.81 1952.95C2424.81 1945 2415.94 1940.99 2407.99 1943.99L1428.91 2313.62C1420.96 2316.63 1416.95 2325.5 1419.95 2333.45C1422.95 2341.4 1431.83 2345.41 1439.78 2342.41L2418.85 1972.77C2426.8 1969.77 2430.81 1960.9 2427.81 1952.95Z" fill="black"/>
<path id="Path_3" d="M1206.36 629.348L1823.68 396.29C1831.63 393.289 1840.5 397.3 1843.51 405.247C1846.51 413.194 1842.5 422.07 1834.55 425.07L1192.42 667.494L1206.36 629.348Z" fill="black"/>
<path id="Path_4" d="M931.83 906.08C1086.04 873.35 1178.91 722.22 1206.19 651.149C1200.68 664.524 1177.3 688.144 1122.23 738.498C1078.17 778.785 947.571 829.238 887.773 849.43C890.921 863.073 900.99 904.823 916.098 962.73C960.155 1110.64 998.07 1158.77 999.562 1158.77C942.279 1078.84 931.305 956.434 931.83 906.08Z" fill="black"/>
<path id="Path_5" d="M1779.65 1725.14L2384.95 1959.17C2085.23 2082.35 1462.91 2314.61 1462.91 2314.61C1414.67 2257.87 1391.95 2199.66 1367.9 2149.22L1779.65 1725.14Z" fill="black"/>
<path id="Path_6" d="M48.7534 2297.68L30.2801 2347.83H427.373L445.819 2305.58L459.073 2347.83H523.846L511.036 2162.96L340.408 2144.6L48.7534 2297.68Z" fill="black"/>
<path id="Path_7" d="M1116.59 2297.68L1135.06 2347.83H737.97L719.524 2305.58L706.262 2347.83H641.497L654.307 2162.96L824.935 2144.6L1116.59 2297.68Z" fill="black"/>
<path id="Shape (Stroke)" fillRule="evenodd" clip-rule="evenodd" d="M366.655 1756.28C364.66 1756.15 362.941 1757.67 362.814 1759.66L336.877 2167.05C336.75 2169.05 338.264 2170.77 340.258 2170.89C342.253 2171.02 343.973 2169.51 344.1 2167.51L370.036 1760.12C370.163 1758.13 368.649 1756.41 366.655 1756.28ZM507.182 1756.27C505.183 1756.27 503.563 1757.89 503.563 1759.89V2167.28C503.563 2169.28 505.183 2170.9 507.182 2170.9C509.18 2170.9 510.8 2169.28 510.8 2167.28V1759.89C510.8 1757.89 509.18 1756.27 507.182 1756.27Z" fill="black"/>
<path id="Shape (Stroke)_2" fillRule="evenodd" clip-rule="evenodd" d="M798.687 1756.28C796.693 1756.41 795.179 1758.13 795.306 1760.12L821.234 2167.51C821.361 2169.51 823.08 2171.02 825.075 2170.89C827.069 2170.77 828.583 2169.05 828.456 2167.05L802.529 1759.66C802.402 1757.67 800.682 1756.15 798.687 1756.28ZM658.161 1756.27C656.162 1756.27 654.542 1757.89 654.542 1759.89V2167.28C654.542 2169.28 656.162 2170.9 658.161 2170.9C660.159 2170.9 661.779 2169.28 661.779 2167.28V1759.89C661.779 1757.89 660.159 1756.27 658.161 1756.27Z" fill="black"/>
<path id="Shape (Stroke)_3" fillRule="evenodd" clip-rule="evenodd" d="M467.684 1792.08C465.686 1792.03 464.023 1793.6 463.968 1795.6L455.419 2109.08C455.365 2111.08 456.94 2112.75 458.938 2112.8C460.935 2112.86 462.599 2111.28 462.654 2109.28L471.203 1795.8C471.257 1793.8 469.682 1792.14 467.684 1792.08ZM702.465 1809.19C700.471 1809.32 698.959 1811.04 699.087 1813.03L721.885 2166.42C722.013 2168.41 723.735 2169.93 725.729 2169.8C727.723 2169.67 729.236 2167.95 729.107 2165.95L706.31 1812.56C706.181 1810.57 704.46 1809.06 702.465 1809.19ZM387.785 1824.86C385.787 1824.86 384.166 1826.48 384.166 1828.48V2160.49C384.166 2162.49 385.787 2164.11 387.785 2164.11C389.784 2164.11 391.404 2162.49 391.404 2160.49V1828.48C391.404 1826.48 389.784 1824.86 387.785 1824.86ZM762.542 1924.6C760.543 1924.6 758.923 1926.23 758.923 1928.22V2166.19C758.923 2168.18 760.543 2169.8 762.542 2169.8C764.54 2169.8 766.161 2168.18 766.161 2166.19V1928.22C766.161 1926.23 764.54 1924.6 762.542 1924.6Z" fill="black"/>
<path id="Path (Stroke)_20" fillRule="evenodd" clip-rule="evenodd" d="M336.348 2135.31C327.218 2123.9 317.165 2110.23 309.982 2098.03C305.09 2089.72 301.748 2082.46 300.738 2077.2C300.232 2074.57 300.41 2072.91 300.816 2071.98C301.117 2071.28 301.668 2070.65 303.21 2070.3C306.209 2069.63 309.656 2071.06 313.681 2075.89C317.638 2080.65 321.403 2087.87 324.818 2096.44C329.655 2108.58 333.581 2122.87 336.348 2135.31ZM319.243 2071.26C314.628 2065.72 308.66 2061.67 301.631 2063.24L301.63 2063.24C298.156 2064.02 295.522 2065.99 294.176 2069.1C292.935 2071.96 293.004 2075.3 293.631 2078.57C294.888 2085.11 298.784 2093.27 303.746 2101.7C313.754 2118.69 328.993 2138.23 339.947 2151.02L348.515 2161.02L346.261 2148.04C343.704 2133.33 338.596 2111.47 331.541 2093.76C328.027 2084.95 323.926 2076.89 319.243 2071.26Z" fill="black"/>
<path id="Path (Stroke)_21" fillRule="evenodd" clip-rule="evenodd" d="M833.802 2093.76C826.747 2111.47 821.639 2133.33 819.082 2148.04L816.827 2161.02L825.395 2151.02C836.35 2138.23 851.587 2118.69 861.594 2101.7C866.555 2093.27 870.45 2085.11 871.708 2078.57C872.335 2075.3 872.405 2071.96 871.165 2069.1C869.819 2065.99 867.187 2064.02 863.713 2063.24L863.711 2063.24C856.682 2061.67 850.715 2065.72 846.1 2071.26C841.417 2076.89 837.316 2084.95 833.802 2093.76ZM862.133 2070.3C859.134 2069.64 855.687 2071.06 851.662 2075.89C847.705 2080.65 843.94 2087.87 840.525 2096.44C835.688 2108.58 831.762 2122.87 828.995 2135.31C838.124 2123.9 848.175 2110.23 855.357 2098.03C860.249 2089.72 863.591 2082.46 864.601 2077.2C865.107 2074.57 864.929 2072.91 864.523 2071.97C864.223 2071.28 863.673 2070.65 862.134 2070.3" fill="black"/>
<path id="Path (Stroke)_22" fillRule="evenodd" clip-rule="evenodd" d="M330.858 2138.62C318.143 2131.42 303.731 2122.45 292.533 2113.79C284.906 2107.89 279.106 2102.39 276.217 2097.89C274.768 2095.62 274.32 2094.02 274.349 2093C274.37 2092.25 274.646 2091.46 275.949 2090.57C278.486 2088.83 282.216 2088.87 287.749 2091.87C293.188 2094.81 299.367 2100.12 305.719 2106.81C314.718 2116.29 323.671 2128.1 330.858 2138.62ZM291.194 2085.5C284.85 2082.07 277.806 2080.53 271.862 2084.59C268.924 2086.6 267.211 2089.41 267.114 2092.8C267.025 2095.92 268.331 2098.99 270.125 2101.79C273.723 2107.4 280.37 2113.53 288.106 2119.52C303.708 2131.58 325.11 2144.06 340.032 2151.87L351.701 2157.97L344.79 2146.76C336.951 2134.05 324.091 2115.65 310.967 2101.83C304.43 2094.95 297.631 2088.99 291.194 2085.5Z" fill="black"/>
<path id="Path (Stroke)_23" fillRule="evenodd" clip-rule="evenodd" d="M854.376 2101.83C841.252 2115.65 828.393 2134.05 820.553 2146.76L813.64 2157.98L825.312 2151.87C840.229 2144.06 861.631 2131.58 877.234 2119.52C884.97 2113.53 891.619 2107.4 895.217 2101.79C897.012 2098.99 898.317 2095.92 898.229 2092.8C898.133 2089.41 896.42 2086.6 893.482 2084.59C887.538 2080.53 880.494 2082.07 874.15 2085.5C867.713 2088.99 860.913 2094.95 854.376 2101.83ZM877.595 2091.87C883.127 2088.87 886.858 2088.83 889.395 2090.57C890.697 2091.46 890.973 2092.25 890.994 2093C891.023 2094.02 890.575 2095.62 889.125 2097.88C886.236 2102.39 880.435 2107.89 872.807 2113.79C861.609 2122.45 847.199 2131.42 834.487 2138.62C841.674 2128.1 850.626 2116.29 859.624 2106.81C865.976 2100.12 872.155 2094.81 877.595 2091.87Z" fill="black"/>
<path id="Path (Stroke)_24" fillRule="evenodd" clip-rule="evenodd" d="M315.675 2134.24C325.633 2137.29 332.726 2144.44 336.144 2150.02C337.187 2151.72 339.415 2152.26 341.12 2151.22C342.824 2150.17 343.36 2147.95 342.317 2146.24C338.172 2139.47 329.768 2130.99 317.797 2127.32C305.626 2123.58 290.303 2124.99 272.873 2137.17C257.02 2148.24 243.888 2149.03 234.003 2146.02C223.921 2142.96 216.693 2135.8 213.193 2130.21C212.133 2128.51 209.9 2128 208.206 2129.06C206.512 2130.12 205.998 2132.35 207.059 2134.05C211.294 2140.81 219.83 2149.28 231.9 2152.95C244.169 2156.68 259.579 2155.28 277.018 2143.1C292.879 2132.02 305.917 2131.24 315.675 2134.24Z" fill="black"/>
<path id="Path (Stroke)_25" fillRule="evenodd" clip-rule="evenodd" d="M847.543 2127.32C835.571 2130.99 827.167 2139.47 823.025 2146.24C821.983 2147.95 822.52 2150.18 824.225 2151.22C825.931 2152.26 828.158 2151.72 829.2 2150.02C832.613 2144.44 839.705 2137.29 849.664 2134.24C859.424 2131.24 872.464 2132.02 888.326 2143.1C905.764 2155.28 921.174 2156.68 933.443 2152.95C945.513 2149.28 954.049 2140.81 958.285 2134.05C959.345 2132.35 958.831 2130.12 957.137 2129.06C955.443 2128 953.21 2128.51 952.15 2130.21C948.65 2135.8 941.422 2142.96 931.34 2146.02C921.456 2149.03 908.324 2148.24 892.471 2137.17C875.04 2124.99 859.715 2123.58 847.543 2127.32Z" fill="black"/>
<path id="Path (Stroke)_26" fillRule="evenodd" clip-rule="evenodd" d="M662.398 389.381C648.633 381.866 634.155 380.503 621.816 385.95L662.398 389.381ZM618.894 379.328C633.713 372.788 650.573 374.68 665.866 383.029C681.153 391.378 694.867 406.181 703.375 425.462M618.894 379.328C604.075 385.868 594.114 399.605 589.972 416.525L589.971 416.527C585.84 433.448 587.539 453.554 596.047 472.835C604.556 492.116 618.27 506.92 633.557 515.269C648.85 523.618 665.71 525.51 680.529 518.969C696.619 511.87 706.987 496.288 710.385 477.356C714.307 477.314 719.032 477.018 723.077 476.696L731.442 476.031L725.217 470.404C716.907 462.894 711.759 453.133 708.906 441.622M621.816 385.95C609.479 391.394 600.731 403.011 597.002 418.244L621.816 385.95ZM597.002 418.244C593.281 433.487 594.748 451.965 602.669 469.913C610.589 487.86 623.255 501.396 637.025 508.917M662.398 389.381C676.168 396.902 688.835 410.438 696.755 428.385L696.755 428.386C698.95 433.354 700.646 438.372 701.881 443.361C704.344 453.301 708.455 462.342 714.804 469.98C713.231 470.053 711.705 470.103 710.303 470.118L704.311 470.184L703.261 476.078C703.261 476.079 703.261 476.079 703.261 476.08C700.18 493.243 690.99 506.443 677.607 512.348C665.268 517.794 650.79 516.431 637.025 508.917M703.376 425.463C705.741 430.817 707.572 436.232 708.906 441.622L703.376 425.463Z" fill="black"/>
<path id="Path_8" d="M647.604 458.742C674.599 435.565 674.4 400.498 671.442 388.069C667.923 384.039 656.388 376.147 638.394 376.82C615.895 377.66 601.493 389.166 590.827 419.004C582.287 442.875 599.005 477.089 608.423 491.213C620.473 491.882 629.257 483.202 632.143 478.778C623.196 474.363 612.458 461.967 621.323 451.858C630.189 441.749 648.807 457.69 647.604 458.742Z" fill="black"/>
<path id="Path_9" d="M554.116 336.757C594.057 331.048 614.583 364.167 619.849 381.441L615.624 390.255C614.176 386.569 595.613 381.189 582.07 381.464C540.98 382.303 529.916 450.96 524.958 469.879L463.07 378.516C476.776 366.974 514.166 342.465 554.116 336.757Z" fill="black"/>
<path id="Path (Stroke)_27" fillRule="evenodd" clip-rule="evenodd" d="M681.224 434.397C685.364 435.08 688.81 437.31 690.619 439.074C692.05 440.469 694.341 440.44 695.736 439.009C697.131 437.578 697.102 435.287 695.671 433.892C692.993 431.281 688.247 428.221 682.404 427.256C676.383 426.262 669.396 427.536 662.728 433.365C661.223 434.68 661.07 436.966 662.385 438.471C663.7 439.975 665.986 440.129 667.491 438.814C672.474 434.458 677.262 433.742 681.224 434.397Z" fill="black"/>
<path id="Path (Stroke)_28" fillRule="evenodd" clip-rule="evenodd" d="M675.601 485.399C673.854 486.37 673.225 488.574 674.196 490.32C679.279 499.462 689.022 501.048 693.319 500.744C695.312 500.603 696.814 498.873 696.674 496.88C696.533 494.886 694.803 493.384 692.809 493.525C690.086 493.717 683.726 492.567 680.522 486.804C679.551 485.057 677.347 484.428 675.601 485.399Z" fill="black"/>
<path id="Path (Stroke)_29" fillRule="evenodd" clip-rule="evenodd" d="M680.945 448.45C684.371 449.326 687.265 451.94 688.825 454.165C689.972 455.802 692.229 456.198 693.865 455.051C695.502 453.904 695.898 451.647 694.751 450.011C692.539 446.855 688.335 442.87 682.738 441.438C676.799 439.919 670.035 441.463 663.522 448.145C662.127 449.576 662.157 451.867 663.588 453.262C665.019 454.657 667.31 454.627 668.705 453.196C673.673 448.098 677.859 447.66 680.945 448.45Z" fill="black"/>
<path id="Oval" d="M678.696 455.97C675.799 455.81 673.58 453.332 673.74 450.435C673.9 447.538 676.379 445.319 679.276 445.479C682.173 445.639 684.392 448.117 684.232 451.014C684.072 453.912 681.593 456.131 678.696 455.97Z" fill="black"/>
<path id="Path (Stroke)_30" fillRule="evenodd" clip-rule="evenodd" d="M628.024 462.779C634.595 462.355 638.998 467.083 640.314 469.484C641.274 471.237 643.474 471.879 645.226 470.919C646.979 469.959 647.621 467.759 646.661 466.007C644.593 462.233 637.996 454.883 627.559 455.556C625.564 455.685 624.052 457.406 624.181 459.4C624.309 461.395 626.03 462.907 628.024 462.779Z" fill="black"/>
<path id="Path (Stroke)_31" fillRule="evenodd" clip-rule="evenodd" d="M639.23 460.61C638.714 458.68 636.731 457.533 634.8 458.049C632.885 458.561 630.343 460.006 629.001 462.86C627.587 465.864 627.914 469.525 630.049 473.555C630.984 475.321 633.175 475.994 634.941 475.058C636.707 474.123 637.38 471.933 636.444 470.167C634.996 467.434 635.405 466.248 635.55 465.941C635.765 465.482 636.259 465.151 636.669 465.041C638.6 464.525 639.746 462.541 639.23 460.61Z" fill="black"/>
<path id="Shape (Stroke)_4" fillRule="evenodd" clip-rule="evenodd" d="M613.543 494.282C611.561 494.032 609.751 495.437 609.501 497.42L601.621 559.964C601.371 561.947 602.776 563.757 604.759 564.007C606.742 564.257 608.552 562.852 608.802 560.869L616.681 498.325C616.931 496.342 615.526 494.532 613.543 494.282ZM668.658 518.119C666.673 517.892 664.88 519.318 664.653 521.304L661.505 548.905C661.278 550.891 662.704 552.684 664.69 552.911C666.676 553.137 668.469 551.711 668.695 549.725L671.844 522.124C672.07 520.139 670.644 518.345 668.658 518.119Z" fill="black"/>
<path id="Path_10" d="M663.2 539.153L669.551 517.823C649.187 519.784 628.796 511.195 621.152 506.656C636.477 527.15 655.565 536.86 663.2 539.153Z" fill="black"/>
<path id="Path (Stroke)_32" fillRule="evenodd" clip-rule="evenodd" d="M1080.96 490.817C1051.5 483.42 929.5 461.66 791.683 507.245L793.956 514.117C930.036 469.106 1050.54 490.642 1079.2 497.836C1106.11 504.594 1151.76 527.537 1179.15 561.657C1192.78 578.645 1201.72 598.197 1201.82 619.764C1201.92 641.291 1193.22 665.359 1170.56 691.428C1124.62 743.136 1044.1 786.394 961.615 819.47C880.932 851.822 798.891 874.228 746.75 885.232L697.137 721.573L1014.85 617.717L1012.61 610.838L688.156 716.895L741.744 893.665L744.982 892.995C797.286 882.174 881.49 859.396 964.309 826.188C1047 793.029 1128.87 749.258 1175.98 696.22L1175.99 696.205L1176.01 696.191C1199.55 669.119 1209.17 643.409 1209.06 619.73C1208.95 596.086 1199.13 574.998 1184.79 557.127C1156.22 521.528 1109.06 497.873 1080.96 490.817Z" fill="black"/>
<path id="Path (Stroke)_33" fillRule="evenodd" clip-rule="evenodd" d="M503.003 600.791C503.004 600.791 503.005 600.791 501.618 597.448C500.231 594.106 500.23 594.106 500.228 594.107L500.062 594.176C499.951 594.222 499.786 594.291 499.568 594.382C499.132 594.564 498.485 594.835 497.637 595.192C495.941 595.906 493.442 596.963 490.226 598.338C483.792 601.087 474.487 605.109 462.991 610.201C439.999 620.385 408.234 634.852 373.14 651.99C303.038 686.224 219.34 731.262 165.849 774.182L165.849 774.182C164.849 774.985 163.388 776.067 161.548 777.43C136.421 796.044 40.6248 867.01 84.6005 992.327C103.306 1045.63 142.283 1101.69 183.171 1149.96C224.102 1198.29 267.19 1239.1 294.422 1261.94L298.018 1264.96L384.973 1080.67L258.695 933.091L461.565 838.826L458.515 832.263L246.994 930.547L376.429 1081.82L295.487 1253.36C268.434 1230.28 227.583 1191.2 188.694 1145.28C148.002 1097.24 109.698 1041.99 91.4296 989.931C49.3472 870.009 140.247 802.326 165.81 783.292C167.73 781.863 169.281 780.708 170.379 779.826C223.187 737.455 306.24 692.715 376.316 658.494C411.31 641.404 442.99 626.975 465.922 616.818C477.387 611.74 486.663 607.731 493.07 604.993C496.274 603.623 498.76 602.572 500.444 601.863C501.286 601.509 501.928 601.24 502.358 601.06C502.573 600.97 502.736 600.903 502.844 600.858L503.003 600.791Z" fill="black"/>
<path id="Shape (Stroke)_5" fillRule="evenodd" clip-rule="evenodd" d="M417.13 1134.58L372.312 1103.14L368.156 1109.06L412.973 1140.5L417.13 1134.58ZM379.611 1324.08L312.675 1226.88L306.714 1230.98L373.65 1328.19L379.611 1324.08Z" fill="black"/>
<path id="Path 2" fillRule="evenodd" clip-rule="evenodd" d="M732.941 523.752L802.293 503.497L817.826 673.989L688.486 717.043L694.728 737.698L591.434 793.033C584.061 799.918 574.571 814.121 595.559 815.876C601.854 815.876 610.348 814.544 617.155 813.476C621.707 812.762 625.504 812.167 627.385 812.167L601.639 828.505L573.449 909.174C573.775 914.52 576.995 923.612 587.3 917.198C589.896 924.164 597.848 936.006 608.921 927.647C609.817 933.554 613.833 943.388 622.771 935.418C631.719 927.448 649.341 897.268 657.031 883.174L648.527 930.56C649.423 937.689 654.019 948.635 665.3 935.418C672.103 926.869 687.753 876.289 694.728 852.08L723.741 833.761L741.916 893.912L863.548 861.95L969.972 1777.83H284.147L498.29 594.075L550.172 577.803C550.157 579.108 550.166 580.456 550.202 581.844L533.21 588.294C534.766 633.893 559.526 711.123 650.798 692.961C742.078 674.8 755.268 571.504 749.252 523.577L734.121 527.847C733.759 526.441 733.366 525.075 732.941 523.752Z" fill="#34B051"/>
<path id="Shape (Stroke)_6" fillRule="evenodd" clip-rule="evenodd" d="M500.421 1057.01L534.444 1765.03C534.54 1767.03 532.999 1768.72 531.003 1768.82C529.007 1768.91 527.311 1767.37 527.215 1765.38L493.175 1057.01H428.114C426.116 1057.01 424.495 1055.39 424.495 1053.4C424.495 1051.4 426.116 1049.78 428.114 1049.78H496.603C496.619 1049.78 496.635 1049.78 496.651 1049.78H881.016C883.014 1049.78 884.634 1051.4 884.634 1053.4C884.634 1055.39 883.014 1057.01 881.016 1057.01H500.421Z" fill="black"/>
<path id="Shape (Stroke)_7" fillRule="evenodd" clip-rule="evenodd" d="M853.557 1107.32H688.955L689.095 1111.07C689.437 1120.26 690.692 1131.58 693.193 1143.68L696.737 1142.95L693.193 1143.68C697.405 1164.02 705.2 1186.8 718.312 1205.25C731.474 1223.78 750.112 1238.07 775.822 1240.85C789.119 1242.29 800.461 1239.76 810.009 1234.31C819.514 1228.88 827.036 1220.65 832.95 1210.98C844.733 1191.69 850.44 1166.13 852.674 1143.3L849.073 1142.95L852.675 1143.3C853.831 1131.43 854.061 1120.19 853.693 1110.79L853.557 1107.32ZM845.767 1139.33C846.513 1130.43 846.728 1121.98 846.567 1114.55H696.514C696.962 1121.84 697.973 1130.31 699.705 1139.33H845.767ZM845.049 1146.57C842.609 1167.81 837.086 1190.33 826.775 1207.2C821.319 1216.13 814.602 1223.35 806.417 1228.02C798.275 1232.68 788.476 1234.94 776.6 1233.65C753.44 1231.15 736.494 1218.35 724.212 1201.06C712.78 1184.98 705.494 1165.13 701.231 1146.57H845.049Z" fill="black"/>
<path id="Path (Stroke)_34" fillRule="evenodd" clip-rule="evenodd" d="M699.494 734.682L597.525 788.901C597.52 788.904 597.516 788.906 597.511 788.909C592.268 791.639 588.169 794.838 585.414 798.17C582.715 801.434 580.994 805.233 581.447 808.997C581.938 813.069 584.811 815.952 588.827 817.377C592.704 818.751 597.875 818.908 604.128 817.843L604.25 817.822L604.37 817.793C607.891 816.943 611.333 815.942 614.598 814.887L599.137 826.334L571.126 902.958L571.077 903.165C570.045 907.516 569.897 911.437 570.657 914.687C571.42 917.948 573.183 920.79 576.108 922.268C579.046 923.753 582.383 923.474 585.464 922.094C586.228 921.752 586.991 921.338 587.751 920.853C587.825 921.366 587.914 921.872 588.018 922.37C588.724 925.744 590.207 929.11 592.717 931.428C595.403 933.908 599.038 934.948 603.097 933.758C604.714 933.284 606.343 932.474 607.983 931.336C608.054 931.692 608.135 932.044 608.224 932.391C609.067 935.646 610.814 938.728 613.511 940.656C616.369 942.699 619.99 943.205 623.665 941.627C627.139 940.135 630.386 936.917 633.35 932.119C634.4 930.421 642.768 914.944 650.873 899.571L644.764 932.316V932.651C644.764 938.27 646.928 944.321 652.457 945.838C655.195 946.59 658.031 945.936 660.62 944.38C663.149 942.86 665.623 940.388 668.001 937.03C668.939 935.894 669.838 934.145 670.665 932.343C671.6 930.305 672.646 927.729 673.763 924.78C676.001 918.874 678.593 911.296 681.241 903.167C686.364 887.448 691.747 869.53 695.282 857.343L729.362 834.148L699.494 734.682ZM695.101 745.215L720.905 831.15L689.054 852.827L688.692 854.08C685.184 866.219 679.628 884.759 674.36 900.925C671.725 909.012 669.174 916.467 666.995 922.215C665.905 925.094 664.924 927.5 664.087 929.325C663.668 930.239 663.301 930.971 662.99 931.526C662.836 931.802 662.705 932.016 662.599 932.175C662.547 932.254 662.504 932.313 662.472 932.356C662.456 932.378 662.444 932.393 662.435 932.404C662.426 932.415 662.422 932.421 662.422 932.421L662.29 932.57L662.175 932.733C660.123 935.655 658.306 937.327 656.891 938.177C655.503 939.012 654.708 938.951 654.372 938.859C653.769 938.693 652.082 937.372 652.004 932.97L662.479 876.827L655.688 874.538C646.852 892.12 628.573 926.088 627.195 928.311L627.192 928.315C624.624 932.473 622.369 934.307 620.81 934.977C619.453 935.559 618.512 935.335 617.72 934.769C616.767 934.087 615.775 932.679 615.231 930.577C614.698 928.521 614.676 926.069 615.373 923.66L609.117 920.338C605.61 924.548 602.881 926.279 601.06 926.813C599.501 927.27 598.49 926.908 597.627 926.111C596.589 925.152 595.621 923.366 595.102 920.887C594.594 918.459 594.593 915.703 595.156 913.172L588.815 910.104C586.412 913.063 584.22 914.722 582.507 915.489C580.817 916.245 579.847 916.049 579.373 915.809C578.887 915.563 578.133 914.872 577.704 913.039C577.281 911.229 577.26 908.561 578.072 905.037L605.189 830.858L639.725 805.287L636.763 798.852C635.617 799.115 633.778 799.851 631.837 800.64C631.296 800.86 630.723 801.095 630.12 801.342C628.372 802.058 626.365 802.88 624.121 803.762C618.125 806.118 610.624 808.828 602.792 810.729C597.219 811.664 593.476 811.346 591.246 810.555C589.138 809.808 588.716 808.822 588.633 808.13C588.512 807.13 588.935 805.269 590.992 802.782C592.989 800.366 596.251 797.723 600.866 795.321L600.88 795.314L695.101 745.215Z" fill="black"/>
<path id="Path_11" d="M699.92 868.5L667.081 934.677L692.077 854.288L725.902 832.721L743.788 890.312L863.393 860.657L869.029 910.658L738.396 932.958L723.207 854.288L699.92 868.5Z" fill="black"/>
<path id="Shape (Stroke)_8" fillRule="evenodd" clip-rule="evenodd" d="M613.84 854.636C611.973 853.922 609.881 854.857 609.168 856.724L587.238 914.097C586.525 915.964 587.46 918.056 589.327 918.77C591.194 919.483 593.285 918.548 593.999 916.681L615.928 859.308C616.641 857.441 615.706 855.349 613.84 854.636ZM634.357 864.491C632.493 863.772 630.398 864.702 629.68 866.566L608.357 921.905C607.638 923.77 608.568 925.864 610.432 926.582C612.297 927.301 614.392 926.372 615.11 924.507L636.433 869.169C637.152 867.304 636.222 865.209 634.357 864.491Z" fill="black"/>
</g>
</svg>
